<svg xmlns="http://www.w3.org/2000/svg" viewBox="0 0 160 160" role="img" aria-labelledby="title desc">
  <title id="title">Гайд по меридианам</title>
  <desc id="desc">Силуэт человека с сетью энергетических точек</desc>
  <defs>
    <radialGradient id="a" cx="50%" cy="42%" r="58%">
      <stop offset="0" stop-color="#27d8e7" stop-opacity=".33"/>
      <stop offset=".7" stop-color="#0b3950" stop-opacity=".18"/>
      <stop offset="1" stop-color="#061523" stop-opacity="0"/>
    </radialGradient>
    <linearGradient id="b" x1="0" y1="0" x2="1" y2="1">
      <stop stop-color="#f7d78d"/>
      <stop offset="1" stop-color="#b87522"/>
    </linearGradient>
    <filter id="g" x="-50%" y="-50%" width="200%" height="200%">
      <feGaussianBlur stdDeviation="3" result="blur"/>
      <feMerge><feMergeNode in="blur"/><feMergeNode in="SourceGraphic"/></feMerge>
    </filter>
  </defs>
  <circle cx="80" cy="80" r="72" fill="url(#a)" stroke="#b98a3c" stroke-opacity=".58"/>
  <circle cx="80" cy="34" r="12" fill="none" stroke="url(#b)" stroke-width="3"/>
  <path d="M80 47v61M80 58 55 78M80 58l25 20M80 107l-18 35M80 107l18 35" fill="none" stroke="url(#b)" stroke-width="4" stroke-linecap="round"/>
  <path d="M80 51c-14 18-15 41 0 57 15-16 14-39 0-57Z" fill="#0b2533" stroke="#e6b75d" stroke-opacity=".7"/>
  <path d="M80 55v50M65 72h30M68 90h24" fill="none" stroke="#35d6df" stroke-width="2" stroke-linecap="round"/>
  <g fill="#73f3ee" stroke="#eafdfc" stroke-width="1" filter="url(#g)">
    <circle cx="80" cy="57" r="3"/><circle cx="80" cy="72" r="3"/><circle cx="65" cy="72" r="3"/>
    <circle cx="95" cy="72" r="3"/><circle cx="80" cy="90" r="3"/><circle cx="68" cy="90" r="3"/>
    <circle cx="92" cy="90" r="3"/><circle cx="80" cy="104" r="3"/>
  </g>
  <path d="M31 51c8-17 18-27 34-35M129 51c-8-17-18-27-34-35M31 109c8 17 18 27 34 35M129 109c-8 17-18 27-34 35" fill="none" stroke="#e6b75d" stroke-opacity=".46" stroke-linecap="round"/>
</svg>
